<?xml version="1.0" encoding="UTF-8"?>
<svg xmlns="http://www.w3.org/2000/svg" xmlns:xlink="http://www.w3.org/1999/xlink" width="18px" height="18px" viewBox="0 0 18 18" version="1.1">
<g id="surface1">
<path style=" stroke:none;fill-rule:nonzero;fill:rgb(0%,0%,0%);fill-opacity:1;" d="M 17.757812 8.125 L 13.503906 4.03125 L 13.503906 0.777344 C 13.503906 0.355469 13.160156 0.0117188 12.738281 0.0117188 C 12.320312 0.0117188 11.976562 0.355469 11.976562 0.777344 L 11.976562 2.5625 L 9.523438 0.203125 C 9.253906 -0.0664062 8.792969 -0.0664062 8.488281 0.203125 L 0.257812 8.125 C -0.046875 8.433594 -0.0859375 8.890625 0.222656 9.199219 C 0.53125 9.503906 0.988281 9.542969 1.292969 9.234375 L 1.410156 9.121094 L 1.410156 17.234375 C 1.410156 17.652344 1.753906 18 2.175781 18 L 15.878906 18 C 16.300781 18 16.605469 17.652344 16.644531 17.273438 L 16.644531 9.199219 L 16.722656 9.273438 C 17.28125 9.660156 17.679688 9.386719 17.792969 9.199219 C 18.0625 8.890625 18.0625 8.394531 17.757812 8.125 Z M 10.367188 16.511719 L 7.6875 16.511719 L 7.6875 12.414062 L 10.367188 12.414062 Z M 15.113281 16.511719 L 11.859375 16.511719 L 11.859375 11.648438 C 11.859375 11.226562 11.515625 10.882812 11.097656 10.882812 L 6.921875 10.882812 C 6.5 10.882812 6.15625 11.226562 6.15625 11.648438 L 6.15625 16.511719 L 2.941406 16.511719 L 2.941406 9.003906 L 15.113281 9.003906 Z M 3.085938 7.515625 L 9.027344 1.808594 L 14.910156 7.515625 Z M 3.085938 7.515625 "/>
</g>
</svg>
